<svg xmlns="http://www.w3.org/2000/svg" width="128" height="128" viewBox="0 0 128 128">
  <rect width="128" height="128" rx="16" fill="#0a0e18"/>
  <g fill="#56b4d3">
    <polygon points="40,30 46,38 34,38"/>
    <polygon points="64,26 70,34 58,34"/>
    <polygon points="88,34 94,42 82,42"/>
    <polygon points="52,52 58,60 46,60"/>
    <polygon points="76,56 82,64 70,64"/>
    <polygon points="36,72 42,80 30,80"/>
    <polygon points="64,78 70,86 58,86"/>
    <polygon points="92,80 98,88 86,88"/>
    <polygon points="48,98 54,106 42,106"/>
    <polygon points="78,100 84,108 72,108"/>
  </g>
</svg>
